<?xml version="1.0" standalone="no"?><!DOCTYPE svg PUBLIC "-//W3C//DTD SVG 1.1//EN" "http://www.w3.org/Graphics/SVG/1.1/DTD/svg11.dtd"><svg t="1620549704849" class="icon" viewBox="0 0 1024 1024" version="1.1" xmlns="http://www.w3.org/2000/svg" p-id="4022" data-spm-anchor-id="a313x.7781069.0.i0" xmlns:xlink="http://www.w3.org/1999/xlink" width="200" height="200"><defs><style type="text/css"></style></defs><path d="M452.98 551.68c15.2 15.2 36.22 24.33 59.16 24.33 22.94 0 43.68-9.13 58.74-24.33h0.14c14.92-15.2 24.6-35.94 24.6-58.88v-44.1H428.65v44.09c0 22.53 8.99 43.13 23.78 58.05l0.55 0.84zM595.62 381.1c0-22.94-9.68-43.95-24.74-58.88-15.06-15.2-35.8-24.6-58.74-24.6-22.94 0-43.96 9.4-59.16 24.6-14.93 14.93-24.33 35.94-24.33 58.88v44.1h166.98v-44.1z" fill="#8A8A8A" p-id="4023" data-spm-anchor-id="a313x.7781069.0.i2" class="selected"></path><path d="M512 64C264.58 64 64 264.58 64 512s200.58 448 448 448 448-200.58 448-448S759.42 64 512 64zM389.67 381.1c0-33.73 13.83-64.42 35.94-86.53 22.12-22.12 52.81-35.67 86.54-35.67 33.72 0 64.13 13.55 86.24 35.67 22.26 22.11 35.94 52.8 35.94 86.53v111.69c0 33.45-13.67 64.13-35.94 86.38-22.11 22.12-52.53 35.94-86.24 35.94-33.73 0-64.42-13.82-86.54-35.94l-1.1-1.1c-21.56-22.11-34.83-52.24-34.83-85.28V381.1z m309.9 111.69c0 25.29-4.98 49.48-14.38 71.59-9.4 22.96-23.5 43.68-40.64 60.82-29.58 29.72-69.11 49.62-113.06 53.91v46.99h96.21c10.77 0 19.35 8.72 19.35 19.35 0 10.79-8.58 19.63-19.35 19.63H396.59c-10.79 0-19.63-8.85-19.63-19.63 0-10.63 8.85-19.35 19.63-19.35h95.92v-46.99c-18.24-1.8-35.67-6.36-52.12-13.28-23.09-9.4-43.54-23.5-60.95-40.63-17.14-17.14-31.11-37.86-40.64-60.82-9.13-22.11-14.38-46.3-14.38-71.59v-55.84c0-10.79 8.85-19.36 19.63-19.36 10.64 0 19.35 8.58 19.35 19.36v55.84c0 20.18 3.86 39.25 11.34 56.67 7.46 18.24 18.51 34.55 32.34 48.24 13.81 13.83 30.13 24.74 48.38 32.48 17.41 7.19 36.49 11.2 56.67 11.2 40.91 0 77.82-16.73 104.77-43.68 13.83-13.69 24.88-29.99 32.34-48.24 7.33-17.42 11.2-36.49 11.2-56.67v-55.84c0-10.79 8.85-19.36 19.63-19.36 10.91 0 19.49 8.58 19.49 19.36v55.84z" fill="#8A8A8A" p-id="4024" data-spm-anchor-id="a313x.7781069.0.i3" class="selected"></path></svg>